<svg width="114" height="32" viewBox="0 0 114 32" fill="none" xmlns="http://www.w3.org/2000/svg">
<g id="Group 26">
<path id="payapi" fill-rule="evenodd" clip-rule="evenodd" d="M113.396 7.23383V4.45825H112.372V7.23383H113.396ZM42.5634 28.5761V21.974H42.6173C43.0844 22.6567 43.6817 23.1732 44.4093 23.5235C45.1368 23.8738 45.9318 24.049 46.7941 24.049C47.8181 24.049 48.7119 23.8514 49.4754 23.4561C50.2389 23.0609 50.8766 22.531 51.3886 21.8663C51.9006 21.2015 52.2824 20.438 52.5339 19.5757C52.7854 18.7134 52.9112 17.8152 52.9112 16.881C52.9112 15.8929 52.7854 14.9453 52.5339 14.038C52.2824 13.1308 51.8961 12.3359 51.3752 11.6532C50.8542 10.9705 50.1985 10.4226 49.408 10.0094C48.6175 9.59622 47.6744 9.38962 46.5785 9.38962C45.7162 9.38962 44.9258 9.56029 44.2072 9.90162C43.4886 10.243 42.8957 10.7909 42.4286 11.5454H42.3747V9.76688H38.7368V28.5761H42.5634ZM45.7701 21.1926C45.1593 21.1926 44.6383 21.0668 44.2072 20.8153C43.776 20.5638 43.4302 20.2359 43.1697 19.8317C42.9092 19.4275 42.7206 18.9559 42.6038 18.417C42.487 17.878 42.4286 17.3301 42.4286 16.7732C42.4286 16.1983 42.4825 15.6414 42.5903 15.1025C42.6981 14.5635 42.8823 14.0874 43.1427 13.6743C43.4032 13.2611 43.7446 12.9242 44.1667 12.6637C44.5889 12.4032 45.1144 12.273 45.7432 12.273C46.354 12.273 46.8705 12.4032 47.2926 12.6637C47.7148 12.9242 48.0606 13.2656 48.3301 13.6877C48.5996 14.1099 48.7927 14.5905 48.9095 15.1294C49.0262 15.6684 49.0846 16.2163 49.0846 16.7732C49.0846 17.3301 49.0307 17.878 48.923 18.417C48.8152 18.9559 48.631 19.4275 48.3705 19.8317C48.11 20.2359 47.7687 20.5638 47.3465 20.8153C46.9244 21.0668 46.3989 21.1926 45.7701 21.1926ZM61.6773 23.6717C60.851 23.9232 60.0066 24.049 59.1443 24.049C58.4796 24.049 57.8598 23.9681 57.2849 23.8065C56.7101 23.6448 56.207 23.3933 55.7759 23.0519C55.3447 22.7106 55.0079 22.2794 54.7653 21.7585C54.5228 21.2375 54.4016 20.6177 54.4016 19.8991C54.4016 19.1086 54.5408 18.4574 54.8192 17.9454C55.0977 17.4334 55.457 17.0247 55.8971 16.7193C56.3373 16.4139 56.8403 16.1848 57.4062 16.0321C57.9721 15.8794 58.5425 15.7582 59.1173 15.6684C59.6922 15.5785 60.2581 15.5067 60.815 15.4528C61.3719 15.3989 61.866 15.318 62.2971 15.2103C62.7283 15.1025 63.0696 14.9453 63.3211 14.7387C63.5726 14.5321 63.6894 14.2312 63.6715 13.8359C63.6715 13.4227 63.6041 13.0949 63.4693 12.8524C63.3346 12.6098 63.155 12.4212 62.9304 12.2865C62.7058 12.1517 62.4453 12.0619 62.1489 12.017C61.8525 11.9721 61.5336 11.9496 61.1923 11.9496C60.4378 11.9496 59.8449 12.1113 59.4138 12.4347C58.9826 12.758 58.7311 13.297 58.6592 14.0515H54.8327C54.8866 13.1533 55.1112 12.4077 55.5064 11.8149C55.9016 11.222 56.4046 10.746 57.0155 10.3867C57.6263 10.0274 58.3134 9.77137 59.0769 9.61867C59.8404 9.46597 60.6084 9.38962 61.3809 9.38962C62.0816 9.38962 62.7912 9.43902 63.5098 9.53783C64.2284 9.63664 64.8841 9.82976 65.4769 10.1172C66.0698 10.4046 66.5548 10.8044 66.9321 11.3164C67.3093 11.8284 67.498 12.5065 67.498 13.3509V20.5997C67.498 21.2285 67.5339 21.8303 67.6058 22.4052C67.6776 22.9801 67.8034 23.4112 67.983 23.6987H64.1026C64.0308 23.4831 63.9724 23.263 63.9275 23.0385C63.8825 22.8139 63.8511 22.5848 63.8331 22.3513C63.2223 22.9801 62.5037 23.4202 61.6773 23.6717ZM60.5725 21.5159C60.2671 21.5159 59.9707 21.489 59.6832 21.4351C59.3958 21.3812 59.1443 21.2869 58.9287 21.1521C58.7131 21.0174 58.5425 20.8333 58.4167 20.5997C58.291 20.3662 58.2281 20.0787 58.2281 19.7374C58.2281 19.3781 58.291 19.0817 58.4167 18.8481C58.5425 18.6146 58.7086 18.4215 58.9152 18.2688C59.1218 18.1161 59.3644 17.9948 59.6428 17.905C59.9213 17.8152 60.2042 17.7433 60.4917 17.6894C60.7971 17.6355 61.1025 17.5906 61.4079 17.5547C61.7133 17.5187 62.0052 17.4738 62.2837 17.4199C62.5621 17.366 62.8226 17.2987 63.0651 17.2178C63.3077 17.137 63.5098 17.0247 63.6715 16.881V18.3092C63.6715 18.5248 63.649 18.8122 63.6041 19.1715C63.5592 19.5308 63.4379 19.8856 63.2403 20.2359C63.0427 20.5863 62.7373 20.8872 62.3241 21.1387C61.9109 21.3902 61.327 21.5159 60.5725 21.5159ZM75.4019 27.8486C74.6653 28.3336 73.6413 28.5761 72.3298 28.5761C71.9346 28.5761 71.5439 28.5627 71.1576 28.5357C70.7714 28.5088 70.3807 28.4773 69.9854 28.4414V25.2886C70.3447 25.3245 70.713 25.3604 71.0903 25.3964C71.4675 25.4323 71.8448 25.4413 72.2221 25.4233C72.7251 25.3694 73.0979 25.1718 73.3404 24.8305C73.5829 24.4891 73.7042 24.1119 73.7042 23.6987C73.7042 23.3933 73.6503 23.1058 73.5425 22.8364L68.665 9.76688H72.7341L75.8869 19.3063H75.9408L78.9859 9.76688H82.9471L77.1265 25.4233C76.7133 26.5551 76.1384 27.3635 75.4019 27.8486ZM88.0754 24.022C88.7401 24.022 89.3509 23.9412 89.9078 23.7795C90.4647 23.6178 90.9633 23.3933 91.4034 23.1058C91.8435 22.8184 92.2163 22.4905 92.5217 22.1223C92.8271 21.754 93.0607 21.3632 93.2224 20.95H93.2762V21.6776C93.2762 21.9651 93.2987 22.23 93.3436 22.4726C93.3885 22.7151 93.4739 22.9262 93.5996 23.1058C93.7254 23.2855 93.9095 23.4292 94.152 23.537C94.3946 23.6448 94.7224 23.6987 95.1356 23.6987C95.4231 23.6987 95.7015 23.6627 95.971 23.5909V22.7286C95.6476 22.7825 95.3961 22.8094 95.2165 22.8094C94.9829 22.8094 94.8033 22.76 94.6775 22.6612C94.5518 22.5624 94.4619 22.4321 94.408 22.2705C94.3541 22.1088 94.3227 21.9291 94.3137 21.7315C94.3047 21.5339 94.3002 21.3363 94.3002 21.1387V13.0814C94.3002 12.0215 93.9185 11.1637 93.155 10.5079C92.3915 9.85222 91.1744 9.52436 89.5036 9.52436C87.8329 9.52436 86.5439 9.90611 85.6367 10.6696C84.7294 11.4331 84.2399 12.5784 84.168 14.1054H85.192C85.2639 12.8658 85.6816 11.9406 86.4451 11.3298C87.2086 10.719 88.2101 10.4136 89.4497 10.4136C90.1504 10.4136 90.7432 10.4855 91.2282 10.6292C91.7133 10.7729 92.1085 10.9705 92.4139 11.222C92.7193 11.4736 92.9439 11.761 93.0876 12.0844C93.2313 12.4077 93.3032 12.758 93.3032 13.1353C93.3032 13.6204 93.2762 14.0246 93.2224 14.3479C93.1685 14.6713 93.0337 14.9363 92.8181 15.1429C92.6026 15.3495 92.2837 15.5112 91.8615 15.6279C91.4393 15.7447 90.86 15.83 90.1234 15.8839L88.5335 16.0187C87.9766 16.0726 87.3972 16.1624 86.7954 16.2881C86.1936 16.4139 85.6456 16.625 85.1516 16.9214C84.6576 17.2178 84.2489 17.622 83.9255 18.134C83.6021 18.646 83.4405 19.3063 83.4405 20.1147C83.4405 21.4441 83.8447 22.4277 84.6531 23.0654C85.4615 23.7032 86.6023 24.022 88.0754 24.022ZM85.4346 22.3917C86.0813 22.8858 86.9706 23.1328 88.1024 23.1328C89.2701 23.1328 90.1953 22.9217 90.8779 22.4995C91.5606 22.0773 92.0816 21.5923 92.4409 21.0444C92.8002 20.4964 93.0292 19.9665 93.128 19.4545C93.2268 18.9425 93.2762 18.5966 93.2762 18.417V15.83C93.0247 16.1354 92.643 16.342 92.131 16.4498C91.619 16.5576 91.0486 16.6385 90.4198 16.6924L88.6952 16.854C88.1922 16.9079 87.6892 16.9843 87.1861 17.0831C86.6831 17.1819 86.2295 17.3481 85.8253 17.5816C85.4211 17.8152 85.0932 18.134 84.8417 18.5383C84.5902 18.9425 84.4645 19.4679 84.4645 20.1147C84.4645 21.1387 84.7878 21.8977 85.4346 22.3917ZM98.6201 28.657V20.8153H98.674C99.0872 21.9471 99.7429 22.7645 100.641 23.2675C101.539 23.7705 102.563 24.022 103.713 24.022C104.773 24.022 105.694 23.8424 106.475 23.4831C107.257 23.1238 107.903 22.6253 108.415 21.9875C108.927 21.3498 109.309 20.5907 109.561 19.7105C109.812 18.8302 109.938 17.8601 109.938 16.8001C109.938 15.83 109.812 14.9048 109.561 14.0246C109.309 13.1443 108.927 12.3718 108.415 11.7071C107.903 11.0424 107.257 10.5124 106.475 10.1172C105.694 9.72197 104.773 9.52436 103.713 9.52436C102.959 9.52436 102.289 9.64113 101.706 9.87467C101.122 10.1082 100.623 10.4001 100.21 10.7505C99.7968 11.1008 99.4645 11.4825 99.213 11.8957C98.9615 12.3089 98.7818 12.6862 98.674 13.0275H98.6201V9.84773H97.5961V28.657H98.6201ZM101.274 22.6073C101.93 22.9576 102.743 23.1328 103.713 23.1328C104.611 23.1328 105.388 22.9621 106.044 22.6208C106.7 22.2794 107.239 21.8213 107.661 21.2465C108.083 20.6716 108.398 20.0024 108.604 19.2389C108.811 18.4754 108.914 17.6625 108.914 16.8001C108.914 16.0097 108.815 15.2327 108.618 14.4692C108.42 13.7057 108.115 13.023 107.701 12.4212C107.288 11.8194 106.754 11.3343 106.098 10.966C105.442 10.5978 104.647 10.4136 103.713 10.4136C102.797 10.4136 102.015 10.5933 101.369 10.9526C100.722 11.3119 100.197 11.7879 99.7923 12.3808C99.3881 12.9736 99.0962 13.6518 98.9165 14.4153C98.7369 15.1788 98.6471 15.9738 98.6471 16.8001C98.6471 17.6265 98.7279 18.4215 98.8896 19.185C99.0513 19.9485 99.3252 20.6222 99.7115 21.206C100.098 21.7899 100.619 22.257 101.274 22.6073ZM112.372 9.84773H113.396V23.6987H112.372V9.84773Z" fill="white"/>
<g id="Group 12">
<circle id="Oval" cx="16.1197" cy="4.21057" r="2.52632" transform="rotate(45 16.1197 4.21057)" fill="white"/>
<circle id="Oval Copy 6" cx="22.0743" cy="10.1652" r="2.52632" transform="rotate(45 22.0743 10.1652)" fill="white"/>
<circle id="Oval Copy 7" cx="28.0289" cy="16.1197" r="2.52632" transform="rotate(45 28.0289 16.1197)" fill="white"/>
<circle id="Oval Copy 10" cx="10.1651" cy="10.1652" r="2.52632" transform="rotate(45 10.1651 10.1652)" fill="white"/>
<circle id="Oval Copy 9" opacity="0.5" cx="16.1197" cy="16.1197" r="2.52632" transform="rotate(45 16.1197 16.1197)" fill="white"/>
<circle id="Oval Copy 8" opacity="0.5" cx="22.0743" cy="22.0742" r="2.52632" transform="rotate(45 22.0743 22.0742)" fill="white"/>
<circle id="Oval Copy 13" cx="4.21054" cy="16.1197" r="2.52632" transform="rotate(45 4.21054 16.1197)" fill="white"/>
<circle id="Oval Copy 12" opacity="0.5" cx="10.1651" cy="22.0742" r="2.52632" transform="rotate(45 10.1651 22.0742)" fill="white"/>
<circle id="Oval Copy 11" opacity="0.25" cx="16.1197" cy="28.0288" r="2.52632" transform="rotate(45 16.1197 28.0288)" fill="white"/>
</g>
</g>
</svg>
